<?xml version="1.0" encoding="utf-8"?>
<!-- Generator: Adobe Illustrator 16.0.0, SVG Export Plug-In . SVG Version: 6.00 Build 0)  -->
<!DOCTYPE svg PUBLIC "-//W3C//DTD SVG 1.1//EN" "http://www.w3.org/Graphics/SVG/1.1/DTD/svg11.dtd">
<svg version="1.1" xmlns="http://www.w3.org/2000/svg" xmlns:xlink="http://www.w3.org/1999/xlink" x="0px" y="0px" width="1283px"
	 height="1106px" viewBox="0 0 1283 1106" enable-background="new 0 0 1283 1106" xml:space="preserve">
<g id="Layer_1_xA0_Image_1_">
	<g id="Layer_1_xA0_Image">
		<path fill="none" d="M658,114.5c-0.2-1.9-1.5-0.7-2-2c-0.3-0.7,0-2.2,0-3c0-4.9-0.6-8.8-2-13c-0.7-2.1-1.1-4-2-6
			c-0.9-1.9-2-3.5-3-5.5h-1c-0.3-0.7-0.7-1.3-1-2h-1c0-0.3,0-0.7,0-1h-1c0-0.3,0-0.7,0-1h-1c0-0.3,0-0.7,0-1h-2c0-0.3,0-0.7,0-1h-9
			c0,0.3,0,0.7,0,1h-7c0,0.3,0,0.7,0,1h-7c0,0.3,0,0.7,0,1h-6c0,0.3,0,0.7,0,1h-5c0-0.3,0-0.7,0-1h5c0-0.3,0-0.7,0-1h4
			c0-0.3,0-0.7,0-1h-11c0,0.3,0,0.7,0,1h-8c0,0.3,0,0.7,0,1h-6c0,0.3,0,0.7,0,1h-5c0,0.3,0,0.7,0,1h-3c-7.3,3.7-15.5,5.7-23,8.8
			c-7.3,3.1-16,5.9-22,11.2h2c3.9-3.4,10.2-5,15-6.8c4.6-1.8,9.3-3.5,14-5c9.2-3,18.9-4.8,28-8.2h5c0-0.3,0-0.7,0-1h4
			c-1.3,0.7-2.7,1.3-4,2h-5c-6.8,2.5-14,4.1-21,6c-7.1,2-14.1,4.7-21,7.2c-17.1,6.2-35,14.3-50,24.3c-8.4,5.6-16.9,10.9-25,17
			c-4.6,3.4-8.5,7.4-13,11c-4.2,3.4-7.8,7.6-12,11c-8.6,7-16.1,15.6-23,24c-6.9,8.4-14.1,16.2-20,25c-10.9,16.4-21.5,32.7-30,50
			c-8.1,16.5-17.2,32.5-23,50c-1.5,4.4-3.5,8.6-5,13c-1.3,4-2.6,7.9-4,12c-1.4,4.3-3.6,8.7-5,13c-1.3,3.9-1.7,8.1-3,12
			c-2.7,8.2-5.6,16.2-7,25c-0.9,0.4-1.2,1.1-1,2c0,0.7,0,1.3,0,2c0,0.1-0.9,2.6-1,3c-0.4,1.1-0.6,1.9-1,3c-0.1,0.4-1,2.9-1,3
			c-0.7,4.2-1.3,7.7-2,12c-0.9,0.4-1.2,1.1-1,2c0,0.7,0,1.3,0,2c0,0.1-0.9,2.6-1,3c-0.7,2-0.7,3.8-1,6c-0.6,3.9-2.4,8-3,12
			c-0.7,4.4-1.3,8.6-2,13c-0.6,3.8-2,7.5-2,11.5h-1c0-0.8,0.1-1.7,0-2.5c-0.1-1.2-0.9-2.1-1-3c-0.2-1,0.1-2,0-3c0.2-0.9-0.1-1.6-1-2
			c-0.6-3.9-0.8-7.4-2-11c-1.2-3.5-1.5-7.3-2-11c-0.2-1.7-0.7-3.1-1-5c-0.2-1.3-1.8-3.7-2-5c-0.6-3.7-0.8-7.5-2-11
			c-0.6-1.8-0.7-3-1-5c-0.2-1.3-1.8-3.7-2-5c-0.4-2.2-0.3-4-1-6c-0.5-1.4-1.8-3.6-2-5c-0.6-3.5-0.9-6.7-2-10c-2.3-6.9-3.7-14.1-6-21
			c-2.3-7-4.7-14.1-7-21c-4.7-14.1-9.3-28-14-42c-2.8-8.5-7.2-16.5-10-25c-1.5-4.5-3.9-8.7-6-13c-1.9-3.8-3.1-8.1-5-12
			c-4.1-8.5-8.9-16.5-13-25c-2.1-4.3-4.3-9-7-13c-1.4-2.1-2.5-3.8-4-6c-1.1-1.7-3.1-4.1-4-6c-4.2-8.6-10.8-17.4-17-25
			c-7-8.6-14.7-16.7-23-25c-7.4-7.4-16.1-14.8-25-20c-4.2-2.4-8.5-5.1-13-7c-3.7-1.5-9.1-2.7-12-5.5h-10c-3.3,2.9-6.7,4-9,7.5
			c-2.3,3.4-4.2,6.4-6,10c-0.7,1.4-0.5,3.4-1,5c-0.5,1.4-1.8,3.6-2,5c-0.5,3.2-0.5,5.8-1,9c-0.9,6.1-2,12.4-2,19c0,6.3,0,12.7,0,19
			c0,6.7,0,13.3,0,20c0,3.8,1,6.3,1,10c0,2.9-0.5,6.2,0,9c0.1,0.8,0.8,1.9,1,3c0,0.7,0,1.3,0,2c0,1.6-0.2,3.4,0,5
			c0.4,2.7,0.6,5.9,1,9c0.4,3.2,0.5,6.5,1,10c0.4,2.7,0.5,5.9,1,9c0.6,4,2,8.8,2,13c0,2.5,0.7,3.9,1,6c0.1,1-0.1,2,0,3
			c0.2,1.1,0.9,2.2,1,3c0.7,4.5,0.3,8.5,1,13c0.1,0.8,0.8,1.9,1,3c0.1,1-0.2,2,0,3c0.1,0.8,0.8,1.9,1,3c0.1,1-0.1,2,0,3
			c1.2,8.4,3.6,16.5,5,25c0.9,0.4,1.2,1.1,1,2c0,0.7,0,1.3,0,2c0,0.1,0.9,2.6,1,3c0.4,1.1,0.6,1.9,1,3c0.1,0.4,1,2.9,1,3
			c0.7,4.4,1.7,8,3,12c2.7,8.2,4.3,16.8,7,25c2.8,8.4,6.2,16.6,9,25c1.4,4.3,2.6,8.7,4,13c1.4,4.1,3.6,7.9,5,12
			c1.5,4.5,3.5,8.6,5,13c1.2,3.7,3.7,7.6,4,11.5h1c0.8,6.3,5.1,11.7,7,17.5c2.1,6.2,5.9,11.8,8,18c2.8,8.5,8.1,16.9,12,25
			c4,8.3,7.9,17.4,13,25c2.7,4.1,4.2,8.9,7,13c1.3,2,2,3.9,3,6c1,2.1,3,3.9,4,6c4.2,8.5,9.8,16.5,14,25c1.3,2.6,3.4,4.6,5,7
			c1.2,1.8,2.1,4.1,3,6c0.9,1.9,2.9,4.3,4,6c1.3,2,2.7,4,4,6c5.4,8.1,11.8,16.3,16,25c4,8.3,9.1,16.3,12,25c2.8,8.4,6.2,16.6,9,25
			c0.8,2.3,1.2,4.7,2,7c0.3,1,0.7,2.1,1,3c0.1,0.4,1,2.9,1,3c0.4,2.2,0.3,4,1,6c0.4,1.1,0.6,1.9,1,3c0.1,0.4,1,2.9,1,3
			c1.4,8.5,3.7,16.4,5,25c0.3,2.1,0.6,4.6,1,7c0.3,1.6,1.7,4.4,2,6c0.7,4.2,0.3,7.8,1,12c0.2,1.3,1,2.2,1,4c0,0.9-0.1,2.1,0,3
			c0.1,0.8,0.8,1.9,1,3c0.1,1-0.1,2,0,3c0.3,2.3,1,3.6,1,6c0,1-0.1,2.1,0,3c0.2,1.1,0.9,2.2,1,3c0.7,4.1,0,8.8,0,13
			c0,1.6,0.6,4.5,0,6c-0.8,2.1-4.5,4.2-6,6c-1.6,2-3.9,4.7-5,7c-1,2.1-1.3,3.8-2,6c-0.7,2.1-1,3.5-1,6c0,2,0,4,0,6
			c0,2.6,0.2,4.7,1,7c0.4,1.3,0.7,1.5,1,3c0.6,2.9,0.6,0.1,0,3c-0.2,0.9-0.8,1.8-1,3c-0.1,0.8-0.1,2.2,0,3c0.3,2.1,0.9,4.3,2,6
			c5.5,9,14.7,13.8,24,18.5h8c3.5-1.8,7.3-2.6,11-4.2c3.7-1.6,6.8-3.9,10-6.3c3-2.2,8-5.3,9-9c0.3-1.2,0.2-3.8,0-5
			c-0.7-0.7-1.3-1.3-2-2c0.3-0.3,0.7-0.7,1-1c-0.2-0.9,0.1-1.6,1-2c3.2-6.7,4.5-17.4,2-25c-0.8-2.4-0.9-4.8-2-7c-1-2.1-2.9-3.8-4-6
			c-1.9-3.9-2-7.3-2-12c0-8.8,1.8-16.8,3-25c1.3-8.6,3.3-16.9,6-25c1.4-4.3,2.6-8.7,4-13c1.3-4,2.7-8,4-12c1.5-4.4,3.5-8.6,5-13
			c0.7-2.1,1.3-4,2-6c0.4-1.1,0.6-1.9,1-3c0.1-0.4,0.8-2.6,1-3c2.1-4.2,4.5-8.6,6-13c1.4-4.1,3.6-7.9,5-12c2.9-8.7,8-16.8,12-25
			c1.1-2.3,1.9-4.7,3-7c1-2,2-4,3-6c1.9-4,4-8,6-12c2.1-4.3,3.9-8.7,6-13c1-2,2-4,3-6c1.1-2.2,2.9-3.8,4-6c8.3-16.8,17.8-33.2,26-50
			c1.2-2.4,2.9-4.6,4-7c1.1-2.2,2.9-3.8,4-6c1.9-3.9,4.1-8,6-12c4.2-8.6,9.8-16.4,14-25c2.2-4.6,5.8-8.4,8-13c0.9-1.9,1.8-4.2,3-6
			c1.3-1.9,3-3.9,4-6c2.1-4.3,4.3-8.9,7-13c1.3-2,2-3.9,3-6c1.1-2.3,2.8-2.8,3-5.5h1c-0.2-2,2-3.9,3-5.5c1.2-1.8,2.1-4.1,3-6
			c1-2.1,3-3.9,4-6c0.8-1.7,2.1-3.2,3-5c3.7-7.4,8.4-14.5,12-22c1-2.1,3-3.9,4-6c0.8-1.7,2.1-3.2,3-5c1.8-3.7,3.7-7.6,6-11
			c4.6-6.9,8.4-14.7,12-22c1-2.1,2.7-4.1,4-6c0.9-1.4,2.2-3.4,3-5c1.8-3.7,3.7-7.6,6-11c4.6-6.9,7.4-15.1,12-22
			c2.4-3.6,3.6-7.4,6-11c2.3-3.4,4.2-7.3,6-11c3.6-7.3,7.4-14.7,11-22c8-16.5,17.2-32.6,23-50c1.5-4.4,3.5-8.6,5-13
			c1.4-4.1,3.1-8.1,5-12c1-2,1.3-4.9,2-7c0.7-2,1.3-4,2-6c1.3-4,2.7-8,4-12c0.8-2.4,1.2-4.7,2-7c0.4-1.1,0.6-1.9,1-3
			c0.1-0.4,1-2.9,1-3c0.4-2.2,0.3-4,1-6c0.4-1.1,0.6-1.9,1-3c0.1-0.4,1-2.9,1-3c0.7-4.5,1.3-8.4,2-13c0.1-0.8,0.8-1.9,1-3
			c0.1-1-0.2-2,0-3c0.1-0.8,0.8-1.9,1-3c0.1-1-0.1-2,0-3c0.3-2.3,1-4.2,1-7c0-2,0-4,0-6c0-0.9-0.2-2.1,0-3
			C656.2,116.9,658,114.7,658,114.5z"/>
	</g>
</g>
<g id="Layer_2_xA0_Image_1_">
	<g id="Layer_2_xA0_Image">
	</g>
</g>
</svg>
